<svg width="54" height="19" viewBox="0 0 54 19" fill="none" xmlns="http://www.w3.org/2000/svg">
<path d="M0.577938 18V1.2H7.84994C9.35394 1.2 10.6499 1.448 11.7379 1.944C12.8259 2.424 13.6659 3.12 14.2579 4.032C14.8499 4.944 15.1459 6.032 15.1459 7.296C15.1459 8.544 14.8499 9.624 14.2579 10.536C13.6659 11.432 12.8259 12.12 11.7379 12.6C10.6499 13.08 9.35394 13.32 7.84994 13.32H2.73794L4.46594 11.616V18H0.577938ZM11.2579 18L7.05794 11.904H11.2099L15.4579 18H11.2579ZM4.46594 12.048L2.73794 10.224H7.63394C8.83394 10.224 9.72994 9.968 10.3219 9.456C10.9139 8.928 11.2099 8.208 11.2099 7.296C11.2099 6.368 10.9139 5.648 10.3219 5.136C9.72994 4.624 8.83394 4.368 7.63394 4.368H2.73794L4.46594 2.52V12.048ZM26.2664 18.288C24.9704 18.288 23.7624 18.08 22.6424 17.664C21.5384 17.232 20.5784 16.624 19.7624 15.84C18.9464 15.056 18.3064 14.136 17.8424 13.08C17.3944 12.024 17.1704 10.864 17.1704 9.6C17.1704 8.336 17.3944 7.176 17.8424 6.12C18.3064 5.064 18.9464 4.144 19.7624 3.36C20.5944 2.576 21.5624 1.976 22.6664 1.56C23.7704 1.128 24.9784 0.912 26.2904 0.912C27.7464 0.912 29.0584 1.168 30.2264 1.68C31.4104 2.176 32.4024 2.912 33.2024 3.888L30.7064 6.192C30.1304 5.536 29.4904 5.048 28.7864 4.728C28.0824 4.392 27.3144 4.224 26.4824 4.224C25.6984 4.224 24.9784 4.352 24.3224 4.608C23.6664 4.864 23.0984 5.232 22.6184 5.712C22.1384 6.192 21.7624 6.76 21.4904 7.416C21.2344 8.072 21.1064 8.8 21.1064 9.6C21.1064 10.4 21.2344 11.128 21.4904 11.784C21.7624 12.44 22.1384 13.008 22.6184 13.488C23.0984 13.968 23.6664 14.336 24.3224 14.592C24.9784 14.848 25.6984 14.976 26.4824 14.976C27.3144 14.976 28.0824 14.816 28.7864 14.496C29.4904 14.16 30.1304 13.656 30.7064 12.984L33.2024 15.288C32.4024 16.264 31.4104 17.008 30.2264 17.52C29.0584 18.032 27.7384 18.288 26.2664 18.288ZM46.2728 15.144V4.056H49.3688V15.144H46.2728ZM42.1208 11.064V8.136H53.5448V11.064H42.1208Z" fill="#56B2E7"/>
</svg>
